PathFileType	4	(X/Y/Z)	C:/Users/opensim2020/Desktop/walking_exp_matlab/subject01_walking07_straight_02.trc	
DataRate	CameraRate	NumFrames	NumMarkers	Units	OrigDataRate	OrigDataStartFrame	OrigNumFrames	
100.00	100.00	8	43	mm	100.00	1495	178	
Frame#	Time	LFHD			RFHD			LBHD			RBHD			C7			T10			CLAV			STRN			RBAK			LSHO			LUPA			LELB			LFRM			LWRA			LWRB			LFIN			RSHO			RUPA			RELB			RFRM			RWRA			RWRB			RFIN			LASI			RASI			LPSI			RPSI			LTHI			LKNE			LTIB			LANK			LHEE			LTOE			RTHI			RKNE			RTIB			RANK			RHEE			RTOE			*39			*40			*41			*42			
		X1	Y1	Z1	X2	Y2	Z2	X3	Y3	Z3	X4	Y4	Z4	X5	Y5	Z5	X6	Y6	Z6	X7	Y7	Z7	X8	Y8	Z8	X9	Y9	Z9	X10	Y10	Z10	X11	Y11	Z11	X12	Y12	Z12	X13	Y13	Z13	X14	Y14	Z14	X15	Y15	Z15	X16	Y16	Z16	X17	Y17	Z17	X18	Y18	Z18	X19	Y19	Z19	X20	Y20	Z20	X21	Y21	Z21	X22	Y22	Z22	X23	Y23	Z23	X24	Y24	Z24	X25	Y25	Z25	X26	Y26	Z26	X27	Y27	Z27	X28	Y28	Z28	X29	Y29	Z29	X30	Y30	Z30	X31	Y31	Z31	X32	Y32	Z32	X33	Y33	Z33	X34	Y34	Z34	X35	Y35	Z35	X36	Y36	Z36	X37	Y37	Z37	X38	Y38	Z38	X39	Y39	Z39	X40	Y40	Z40	X41	Y41	Z41	X42	Y42	Z42	X43	Y43	Z43	

67	0.660	-987.96082	335.42462	1674.16345	-1098.90393	303.58350	1681.26489	-1016.42883	448.08725	1628.30847	-1134.00854	418.36624	1635.53394	-1051.22180	479.72351	1436.72668	-1058.50476	518.32971	1144.59985	-1052.85913	336.94086	1368.03992	-1049.25562	295.58118	1212.41846	-1126.78418	536.34869	1245.40173	-891.26324	394.63315	1398.14038	-803.76544	403.27982	1213.75842	-798.22308	392.95825	1060.63538	-774.49353	319.26071	970.97974	-796.86768	205.76598	891.23914	-768.73334	253.62860	867.96332	-762.64063	183.06676	821.12140	-1204.69885	398.01987	1400.39905	-1296.25903	486.04022	1207.98804	-1297.20850	502.13925	1085.70422	-1330.13269	501.31500	966.61688	-1317.88892	446.55988	835.29553	-1353.83936	491.93039	845.69385	-1346.05676	475.05780	758.31934	-953.16754	350.93011	934.86182	-1169.30139	349.15723	943.06708	-1010.83423	535.44092	946.88708	-1156.89478	530.49408	948.14551	-911.48376	408.12933	600.94507	-931.27307	431.80258	467.02997	-930.05518	500.46320	289.00342	-992.53906	545.87115	77.04515	-1046.80591	591.25195	50.90254	-983.79236	400.31570	36.02747	-1238.96570	296.46365	626.61646	-1217.26160	247.53745	475.04633	-1221.94470	339.96283	323.18750	-1178.07288	412.51413	129.51663	-1121.07373	461.85385	100.73660	-1195.49316	293.38281	54.49931	-1077.97302	319.55426	1714.70667	-3102.27612	1972.99231	1023.90503	-3140.59375	2012.61475	1022.01251			 
68	0.670	-988.79346	326.02914	1673.88794	-1099.65491	294.26938	1680.87305	-1017.10535	438.69821	1627.85278	-1134.68298	409.05392	1634.91418	-1051.57104	469.97833	1436.21826	-1058.37170	508.68716	1144.19739	-1053.25964	327.13205	1367.51880	-1049.55896	285.89114	1211.77368	-1126.69934	526.78198	1244.82507	-891.71246	384.62869	1397.87000	-804.04718	392.67902	1213.71692	-797.60718	381.41916	1060.66223	-774.07458	305.77408	972.37958	-796.23572	190.41052	895.31567	-768.36395	237.84921	870.87262	-762.08923	166.12050	825.68628	-1205.34082	388.51288	1399.79517	-1296.15051	477.41727	1207.40088	-1296.81262	494.12424	1085.27905	-1329.67212	494.38522	966.28290	-1317.64917	440.57764	834.31409	-1353.49146	486.14871	845.17462	-1345.77271	469.83591	757.75793	-953.08502	342.09949	933.84241	-1169.44958	339.55411	942.74243	-1011.21912	526.43799	946.11389	-1157.22168	521.06061	947.64526	-911.98206	402.18954	600.50134	-931.40466	427.92758	466.73294	-930.40546	498.32254	289.53113	-992.65863	545.38934	77.68374	-1047.00952	590.99982	51.98979	-983.81433	400.11124	35.90232	-1239.08093	286.50662	626.58923	-1217.37915	237.62402	475.04550	-1222.82629	321.47437	317.86444	-1179.42004	381.65350	120.11728	-1122.78076	429.12622	88.18164	-1197.43347	258.32562	53.01551	-1078.80225	310.35068	1714.21130	-3101.99878	1973.19629	1023.42603	-3140.64624	2012.58984	1022.03040			 
69	0.680	-989.70459	316.53693	1673.53101	-1100.48401	284.87634	1680.33191	-1017.78851	429.18198	1627.31360	-1135.40479	399.61591	1634.23865	-1051.88342	460.14539	1435.63611	-1058.44556	499.05957	1143.71423	-1053.79651	317.32895	1366.92749	-1049.88696	276.16882	1211.10730	-1126.57544	517.06854	1244.18970	-892.24347	374.48746	1397.59094	-803.97131	381.68405	1213.68677	-797.35834	369.97058	1060.62378	-773.77716	292.61090	973.67664	-795.73602	175.54901	899.25085	-767.89215	222.54643	873.70929	-761.59076	149.85428	830.05280	-1205.90552	378.93573	1398.95703	-1296.15637	468.66223	1206.74451	-1296.58643	485.94699	1084.76758	-1329.31921	487.18176	965.78766	-1317.57971	434.23508	833.47095	-1352.96655	479.72083	844.58405	-1345.56860	464.19745	757.14618	-953.07465	333.08841	932.87512	-1169.62317	329.77292	942.23920	-1011.77423	517.31244	945.54767	-1157.57166	511.59158	947.06433	-912.49719	396.05414	599.89746	-931.62006	424.13193	466.48819	-930.78015	496.21524	290.15457	-992.78168	544.83044	78.39115	-1047.39697	590.55786	53.36777	-983.78271	400.28754	35.74030	-1239.24268	277.18570	626.06830	-1217.53296	228.30350	474.34000	-1223.91626	302.76932	312.56912	-1180.93640	350.49008	111.35875	-1124.56506	396.24512	76.45412	-1199.09912	222.93079	52.30510	-1079.74670	300.95612	1713.74219	-3101.91626	1973.18994	1023.27625	-3140.51001	2012.60107	1022.06360			 
70	0.690	-990.48065	307.09604	1672.97058	-1101.44885	275.49548	1679.80957	-1018.58301	419.65555	1626.64624	-1136.23914	390.18042	1633.48926	-1052.36206	450.31183	1435.00098	-1058.68713	489.46786	1143.18958	-1054.36047	307.42871	1366.25256	-1050.26709	266.42047	1210.35974	-1126.61389	507.33664	1243.52783	-892.84021	364.42819	1397.14185	-804.30518	371.10870	1213.52759	-797.20587	358.71695	1060.36487	-773.53619	279.54868	975.04724	-795.28351	161.11363	902.99664	-767.46063	207.75946	876.42078	-761.14813	133.94110	834.37689	-1206.51306	369.28348	1398.14990	-1296.47668	459.73569	1206.04370	-1296.44568	477.57767	1084.17749	-1329.08240	479.72385	965.23096	-1317.54907	427.63046	832.60217	-1352.81006	473.52335	844.17920	-1345.42664	458.17407	756.45508	-953.13727	323.98624	931.96796	-1169.75867	319.79865	941.61914	-1012.46796	507.83121	945.14075	-1158.11060	501.82425	946.57617	-912.97742	389.88892	599.44263	-931.78333	420.51675	466.67520	-931.07129	494.13083	290.93820	-993.01459	544.54865	79.47039	-1047.47424	590.33716	54.63807	-983.58032	400.21857	35.82124	-1239.72534	268.52432	624.93854	-1217.65735	219.57204	473.20059	-1225.40686	284.17093	307.73444	-1183.14172	318.74921	103.44003	-1126.65674	362.95178	65.78863	-1200.32629	187.72351	52.25282	-1080.75171	291.54727	1713.31018	-3101.87939	1973.01379	1023.33679	-3140.64160	2012.66101	1022.12073			 
71	0.700	-991.43842	297.53458	1672.44421	-1102.43359	265.98975	1679.14197	-1019.40723	410.05746	1625.95215	-1137.04504	380.67593	1632.62878	-1052.96814	440.38806	1434.28760	-1059.15601	479.70502	1142.63245	-1055.04626	297.53867	1365.49475	-1050.65234	256.58804	1209.54565	-1126.72009	497.64108	1242.75171	-893.56055	354.32483	1396.68042	-804.62799	360.36014	1213.27979	-797.30267	347.70255	1060.06335	-773.48035	267.16190	975.98029	-794.87683	147.20403	906.53094	-767.19299	193.35820	878.98584	-760.67218	118.64763	838.62567	-1206.93042	359.56442	1397.06592	-1296.41333	450.76984	1205.15576	-1296.42883	469.01541	1083.49792	-1329.00232	471.93622	964.58551	-1317.55823	420.63293	831.68457	-1352.53357	466.37704	843.39893	-1345.32214	451.71350	755.73645	-953.17090	314.85373	931.06860	-1169.94446	309.57025	940.79138	-1013.33954	498.39069	944.65424	-1158.76282	491.97491	946.10034	-913.47308	383.69077	599.03339	-931.93054	416.22836	466.48355	-931.32147	492.07614	291.88226	-993.40704	543.49591	80.18706	-1047.94360	589.65808	56.20990	-983.72437	400.29868	35.82119	-1239.93872	260.69727	623.16180	-1218.15417	211.24797	471.83276	-1227.08948	265.67804	303.53104	-1185.11621	286.85895	96.63799	-1129.36475	329.65347	57.05674	-1200.64807	152.52724	52.98680	-1081.79407	282.08337	1712.60510	-3102.00757	1973.09265	1023.52271	-3140.80933	2012.50525	1022.06885			 
72	0.710	-992.81781	287.80646	1672.04736	-1103.57520	256.46899	1678.40747	-1020.33582	400.43317	1625.16663	-1138.05859	371.14020	1631.75024	-1053.68140	430.53439	1433.52087	-1059.75476	469.87881	1141.82361	-1055.79858	287.59482	1364.70203	-1051.13025	246.72368	1208.66309	-1127.02344	487.85712	1241.91479	-894.32080	344.19733	1396.10547	-805.22675	350.05734	1213.00623	-797.29468	337.06146	1059.82092	-773.39484	255.05806	976.97113	-794.50555	133.65543	909.89526	-767.12738	179.23563	881.35107	-760.31696	103.75264	842.48798	-1207.62048	349.77820	1396.10913	-1296.72717	441.69290	1204.29541	-1296.57202	460.31134	1082.77393	-1329.01941	463.94550	963.88379	-1317.67883	413.26599	830.68030	-1352.64343	459.14569	842.67377	-1345.39832	444.83524	754.93390	-953.29663	305.54803	930.34711	-1170.10376	299.15063	939.82294	-1014.20898	488.71371	944.17816	-1159.48022	481.89810	945.54883	-913.88440	377.40634	598.75745	-932.03937	412.16992	466.70279	-931.39539	490.01379	292.83423	-993.55750	543.13953	81.56879	-1048.25989	589.24750	57.87036	-983.68164	399.92163	35.84991	-1240.56104	253.63647	620.91333	-1218.61340	203.22272	470.31836	-1228.78540	247.33275	299.86566	-1187.22302	255.02921	91.19337	-1132.18188	296.77444	49.78767	-1199.82983	117.83200	54.89489	-1082.79700	272.64377	1711.75256	-3101.85791	1973.05713	1023.38507	-3140.61523	2012.63220	1022.12018			 
73	0.720	-994.08899	278.04218	1671.24500	-1104.78088	246.87755	1677.52246	-1021.31079	390.69812	1624.33118	-1139.08350	361.52493	1630.77148	-1054.41187	420.61459	1432.60742	-1060.69739	460.04694	1141.02209	-1056.57129	277.70718	1363.78003	-1051.65137	236.81154	1207.79028	-1127.53674	477.97049	1240.98242	-895.19635	334.09778	1395.44348	-805.75311	339.43497	1212.57507	-797.63409	326.47009	1059.29724	-773.54791	243.09973	977.87610	-794.21173	120.68201	912.93677	-766.88025	165.84084	883.57153	-759.84204	89.47251	846.28284	-1208.71606	340.01654	1395.29114	-1297.10950	432.49731	1203.35156	-1296.81848	451.30734	1081.93604	-1329.33447	455.51917	963.13422	-1317.86865	405.56729	829.67267	-1352.71277	451.68430	841.93390	-1345.52600	437.52875	754.10815	-953.40118	296.11621	929.63245	-1170.30579	288.46408	938.74536	-1015.23810	478.91324	943.75305	-1160.44336	471.83707	944.99414	-914.20532	371.13165	598.61450	-932.07642	407.74750	466.80917	-931.83002	487.37881	293.90570	-993.84894	542.80804	82.96565	-1048.60168	588.83020	59.80758	-983.69910	399.79932	35.80549	-1241.04810	247.32648	618.31873	-1219.11475	195.26666	468.70065	-1230.36597	229.47241	296.88098	-1189.51636	224.48424	87.24104	-1135.58081	264.30511	43.80034	-1198.86829	84.70422	58.26413	-1084.17700	263.02856	1711.01624	-3102.06543	1973.15479	1023.88031	-3140.61084	2012.52673	1021.93243			 
74	0.730	-995.11865	268.37247	1670.35315	-1106.06763	237.19379	1676.63098	-1022.47394	380.94583	1623.46057	-1140.21130	351.86252	1629.76917	-1055.38660	410.73135	1431.69189	-1061.82874	450.10309	1140.13538	-1057.48804	267.74948	1362.82996	-1052.31824	226.82855	1206.86304	-1128.18262	468.07965	1239.91541	-896.15918	324.07739	1394.71643	-806.63379	329.31512	1212.07092	-798.12549	316.09286	1058.60608	-773.70892	231.87820	978.44037	-793.97223	108.12557	915.75708	-766.97742	152.75722	885.49481	-759.49146	75.79743	849.65784	-1209.41284	330.18729	1394.04749	-1297.58813	423.19159	1202.38184	-1297.24963	442.16910	1081.08630	-1329.65356	446.89886	962.29193	-1318.11011	397.44904	828.61896	-1353.03821	443.53033	841.09717	-1345.68677	429.78284	753.14124	-953.51208	286.55701	929.02686	-1170.51196	277.67090	937.49347	-1016.45508	468.89777	943.27136	-1161.38562	461.10895	944.29364	-914.38141	364.78467	598.55145	-932.03101	403.07181	467.13907	-931.97095	484.93872	295.06589	-993.99951	542.21527	84.58611	-1048.94226	588.20905	61.89803	-983.65320	399.83984	35.91452	-1241.98950	241.65977	615.56708	-1219.43896	187.11063	467.08798	-1231.88635	211.63646	294.43985	-1191.74719	195.18556	84.97281	-1138.71948	233.47166	39.07607	-1197.86328	53.26183	63.55653	-1085.44019	253.34152	1710.12024	-3101.87769	1973.10486	1023.71710	-3140.49365	2012.61816	1022.09369			 
